<?xml version="1.0" encoding="UTF-8"?>
<svg version="1.1" xmlns="http://www.w3.org/2000/svg" width="2048" height="2048">
<path d="M0 0 C675.84 0 1351.68 0 2048 0 C2048 675.84 2048 1351.68 2048 2048 C1372.16 2048 696.32 2048 0 2048 C0 1372.16 0 696.32 0 0 Z " fill="#FEFEFE" transform="translate(0,0)"/>
<path d="M0 0 C8.71235101 -0.0469769 17.42465642 -0.08219274 26.13710785 -0.10362434 C30.18552724 -0.11392627 34.23385811 -0.12782607 38.28222656 -0.15087891 C109.67559078 -0.54622503 109.67559078 -0.54622503 133.0859375 20.5703125 C141.36916693 29.54978371 146.29829689 41.40286275 151.1875 52.4375 C151.84221581 53.89754835 152.49750143 55.35734132 153.15332031 56.81689453 C157.79467273 67.17391955 162.32451136 77.57949082 166.81225586 88.00390625 C171.5525673 99.01391149 176.39539605 109.97747801 181.25 120.9375 C187.50586628 135.0629443 193.71754575 149.2063837 199.875 163.375 C205.32845309 175.92169556 210.84983257 188.4338899 216.46582031 200.90869141 C222.17149756 213.58377971 227.75318396 226.31253383 233.33398438 239.04296875 C238.52707972 250.88474238 243.75759288 262.70785079 249.0625 274.5 C255.26239529 288.28654728 261.33880482 302.1262374 267.40527344 315.97192383 C271.67873612 325.72360197 275.97358699 335.46472704 280.3125 345.1875 C284.62754464 354.86082733 288.85539611 364.56991809 293.05157471 374.29528809 C297.69095084 385.04195287 302.42287979 395.74583018 307.1875 406.4375 C311.99589412 417.22761829 316.78167752 428.02549343 321.47192383 438.86767578 C323.60048828 443.78684384 325.74491514 448.69840767 327.91015625 453.6015625 C328.65108521 455.27955933 328.65108521 455.27955933 329.40698242 456.99145508 C330.35227966 459.12996802 331.29894915 461.26787518 332.24731445 463.4050293 C334.65371743 468.85010583 336.94184876 474.32210214 339.12890625 479.85864258 C340.15104427 482.37130306 341.30837857 484.78273251 342.5625 487.1875 C344.23523255 490.4068246 345.72089425 493.66274625 347.14323425 496.99992371 C348.66123094 500.54361017 350.22016805 504.06932366 351.7734375 507.59765625 C352.51672685 509.28798525 353.25997043 510.97833438 354.00317383 512.66870117 C354.3900235 513.54835541 354.77687317 514.42800964 355.17544556 515.33432007 C362.12085333 531.13045356 369.03612823 546.93868375 375.875 562.78125 C377.8192097 567.28284322 379.77659795 571.77821392 381.74848938 576.26774597 C382.97674614 579.06497953 384.20105626 581.86393281 385.42514038 584.66299438 C386.01141889 586.00058525 386.59962099 587.33733483 387.18984985 588.67318726 C388.00257845 590.51303308 388.8081074 592.35605422 389.61328125 594.19921875 C390.07516846 595.24940186 390.53705566 596.29958496 391.01293945 597.3815918 C392 600 392 600 392 603 C356.33028535 604.06066332 317.74704735 601.0088612 284 589 C282.85789062 588.60039063 281.71578125 588.20078125 280.5390625 587.7890625 C255.74795159 578.29323852 241.62049399 558.36372822 231.2109375 535.05078125 C229.23340901 530.51669169 227.30247204 526.01354666 225.88671875 521.26953125 C223.87638576 517.7857865 223.61791483 517.48609825 220.04296875 516.36328125 C218.43103257 515.98400215 216.81169901 515.63525141 215.1875 515.3125 C213.44889482 514.91417168 211.71061437 514.5144234 209.97265625 514.11328125 C208.69285889 513.83218506 208.69285889 513.83218506 207.38720703 513.54541016 C204.25714699 512.83027883 201.19792929 511.92816516 198.125 511 C182.10932253 506.38718967 165.75623372 503.04613403 149.4609375 499.59375 C144.48096233 498.53624147 139.50793056 497.45225953 134.5390625 496.34375 C81.41298334 484.50288567 27.76699064 475.43705312 -25.9831543 466.95288086 C-29.71781783 466.36320879 -33.4511128 465.76628488 -37.18286133 465.15844727 C-48.23997524 463.36498628 -59.31490529 461.88652323 -70.4375 460.5625 C-71.32038696 460.45672638 -72.20327393 460.35095276 -73.11291504 460.24197388 C-77.67813687 459.69518004 -82.24381958 459.15249026 -86.81005859 458.61425781 C-90.05334179 458.23167653 -93.29589394 457.84398008 -96.53759766 457.44824219 C-120.64011672 454.50856861 -144.79604488 452.58627907 -169.01171875 450.83203125 C-169.96896347 450.7624118 -170.92620819 450.69279236 -171.91246033 450.62106323 C-174.94112418 450.40549204 -177.97031748 450.20075656 -181 450 C-182.31078018 449.91150284 -183.62156036 449.82300568 -184.97206116 449.73182678 C-194.60157121 449.10611283 -204.1957153 448.83721186 -213.84765625 448.83203125 C-215.31611662 448.82879576 -216.7845767 448.82543026 -218.2530365 448.82194519 C-221.31266013 448.81601923 -224.37225582 448.81409806 -227.43188477 448.81469727 C-230.4921672 448.81477779 -233.55229759 448.80794136 -236.61254883 448.79418945 C-264.00180379 448.67323017 -291.21189594 449.66479763 -318.4375 452.875 C-319.17629395 452.95959473 -319.91508789 453.04418945 -320.67626953 453.13134766 C-338.89252485 455.21907073 -356.98652714 457.92060923 -374.90039062 461.86914062 C-380.6827067 463.10576443 -380.6827067 463.10576443 -384 462 C-371.14092113 449.54391221 -355.84514204 440.14548994 -340 432 C-339.1961084 431.58508301 -338.3922168 431.17016602 -337.56396484 430.74267578 C-320.27167055 421.92187612 -302.09584167 415.1436302 -283.453125 409.75390625 C-281.00546643 409.04210545 -281.00546643 409.04210545 -278.73242188 408.0715332 C-267.49741074 403.66566617 -255.56065209 401.58675089 -243.75 399.375 C-242.16394887 399.07351384 -240.57801069 398.77143283 -238.9921875 398.46875 C-235.97001304 397.89221429 -232.94715637 397.31947394 -229.92382812 396.74902344 C-226.84429784 396.16116885 -223.77298567 395.54959056 -220.703125 394.9140625 C-209.60518903 392.69001548 -198.38961358 391.39992833 -187.14501953 390.19506836 C-184.76665203 389.93929082 -182.38920093 389.67597406 -180.01171875 389.41210938 C-171.23584786 388.4543845 -162.49226903 387.75578183 -153.67691326 387.29812813 C-148.82149463 387.01391479 -143.99384146 386.52882886 -139.15571594 386.03805542 C-129.0683176 385.0524121 -118.99180007 384.3561909 -108.86791992 383.88720703 C-107.97430201 383.84518732 -107.0806841 383.80316761 -106.15998685 383.75987458 C-80.83753971 382.60623433 -55.50046848 382.74222424 -30.15778756 382.79721212 C-23.96962873 382.80965836 -17.78146232 382.81047677 -11.59329309 382.81251587 C0.62295868 382.81683948 12.83918298 382.82999942 25.05541992 382.84912109 C36.8871243 382.86762103 48.71882109 382.88170736 60.55053711 382.89013672 C61.28598889 382.89066217 62.02144068 382.89118761 62.77917888 382.89172898 C66.47055937 382.89434 70.16193991 382.89686719 73.85332048 382.89935279 C104.23556662 382.9199182 134.61777941 382.95514701 165 383 C164.71372175 382.34194461 164.4274435 381.68388922 164.13249016 381.00589275 C162.82109217 377.99121476 161.5099097 374.97644307 160.19873047 371.96166992 C159.74841965 370.92657036 159.29810883 369.89147079 158.83415222 368.82500458 C155.57490668 361.33048922 152.33690698 353.82743746 149.125 346.3125 C148.10811265 343.93618091 147.09118436 341.55987935 146.07421875 339.18359375 C145.56681152 337.99749512 145.0594043 336.81139648 144.53662109 335.58935547 C143.01227805 332.02868 141.48514987 328.46921284 139.95703125 324.91015625 C135.23499634 313.91013472 130.52848565 302.90421073 125.875 291.875 C121.04026955 280.42017356 116.14977126 268.98962206 111.25 257.5625 C110.86404663 256.66220062 110.47809326 255.76190125 110.08044434 254.83432007 C106.36285015 246.16287181 102.64322276 237.49230838 98.91375732 228.82595825 C97.31631997 225.1136478 95.72028384 221.40073634 94.125 217.6875 C93.82045898 216.97881775 93.51591797 216.2701355 93.20214844 215.53997803 C88.2846994 204.08817275 83.47965182 192.59265467 78.76611328 181.05541992 C78.08524658 179.39410034 78.08524658 179.39410034 77.390625 177.69921875 C76.99907227 176.73846436 76.60751953 175.77770996 76.20410156 174.7878418 C74.91240749 171.79719813 73.48174959 168.90055428 72 166 C71.55068115 167.00353516 71.55068115 167.00353516 71.09228516 168.02734375 C69.60356275 171.3517295 68.11440501 174.67592003 66.625 178 C66.34222198 178.63113708 66.05944397 179.26227417 65.76809692 179.91253662 C62.03672321 188.23944891 58.29821025 196.56311266 54.55078125 204.8828125 C53.98478966 206.1394294 53.98478966 206.1394294 53.40736389 207.4214325 C52.63830992 209.12884713 51.86925167 210.83625984 51.10018921 212.54367065 C50.52465805 213.82142868 50.52465805 213.82142868 49.9375 215.125 C49.55034821 215.98449249 49.16319641 216.84398499 48.76431274 217.72952271 C43.61514879 229.16297154 38.49755518 240.60936598 33.42358398 252.07641602 C30.67348515 258.2771692 27.88826947 264.46089081 25.07421875 270.6328125 C24.56723198 271.74515007 24.56723198 271.74515007 24.05000305 272.87995911 C22.39488469 276.50949818 20.73654609 280.13752072 19.07348633 283.76342773 C16.20416418 290.0347682 13.42640425 296.31378862 10.91699219 302.73999023 C9.32697748 306.65872456 7.46962177 310.44624069 5.625 314.25 C2.9364509 319.85027574 0.33387624 325.45589327 -2.0625 331.1875 C-4.55520032 337.12250077 -7.35322567 342.85795348 -10.28540039 348.5847168 C-12.03310284 352.00655713 -13.60207468 355.42288826 -15 359 C-15.81319702 359.00808685 -16.62639404 359.01617371 -17.4642334 359.02450562 C-27.80963923 359.12928356 -38.15485716 359.24693466 -48.5 359.375 C-49.32298332 359.38516521 -50.14596664 359.39533043 -50.99388885 359.40580368 C-73.14039131 359.68302758 -95.2397691 360.11622156 -117.35137939 361.47137451 C-125.25412841 361.9551972 -133.08311019 362.10492638 -141 362 C-138.51027171 353.68576135 -134.84969375 346.00076908 -131.125 338.1875 C-130.45073092 336.76298092 -129.77707525 335.33817133 -129.10400391 333.91308594 C-128.07349111 331.73130502 -127.04265614 329.54968457 -126.00997925 327.368927 C-122.76335021 320.51206112 -119.56367376 313.63402341 -116.375 306.75 C-115.31121136 304.45572293 -114.2474093 302.16145209 -113.18359375 299.8671875 C-112.66007324 298.73764648 -112.13655273 297.60810547 -111.59716797 296.44433594 C-109.9739823 292.94389212 -108.34866688 289.4444449 -106.72265625 285.9453125 C-98.16613283 267.53181647 -89.61263992 249.1168179 -81.18359375 230.64453125 C-80.85353333 229.92120605 -80.5234729 229.19788086 -80.18341064 228.45263672 C-79.84976501 227.72141602 -79.51611938 226.99019531 -79.17236328 226.23681641 C-72.30354117 211.18306201 -65.37055442 196.16190765 -58.35546875 181.17578125 C-55.09425913 174.20869433 -51.85823869 167.23009988 -48.625 160.25 C-45.1596913 152.77091647 -41.67696177 145.30078931 -38.15625 137.84765625 C-37.82738297 137.15135605 -37.49851593 136.45505585 -37.15968323 135.73765564 C-36.8279863 135.03540359 -36.49628937 134.33315155 -36.15454102 133.60961914 C-35.47799707 132.17726039 -34.80148352 130.74488729 -34.125 129.3125 C-33.78991425 128.60302216 -33.45482849 127.89354431 -33.10958862 127.16256714 C-27.71364161 115.72873451 -22.44794568 104.24014987 -17.24142456 92.71899414 C-12.89966669 83.11545506 -8.44950971 73.57470174 -3.87011719 64.08154297 C-0.65264612 57.39975781 2.48290138 50.68395391 5.5625 43.9375 C5.98055908 43.02653564 6.39861816 42.11557129 6.8293457 41.17700195 C11.10466916 31.75991556 14.0566672 23.03141558 11.3828125 12.58984375 C9.26149691 7.71832697 5.96915796 5.0486879 1.609375 2.12890625 C1.07828125 1.75636719 0.5471875 1.38382813 0 1 C0 0.67 0 0.34 0 0 Z " fill="#010101" transform="translate(680,725)"/>
<path d="M0 0 C8.40586115 -0.02317503 16.81170894 -0.04094143 25.21759415 -0.05181217 C29.12082295 -0.05702969 33.02402988 -0.06410684 36.92724609 -0.07543945 C40.69438644 -0.08630847 44.46150576 -0.09228537 48.22866058 -0.09487724 C49.66555869 -0.09672424 51.10245564 -0.10033095 52.53934479 -0.10573006 C54.55258562 -0.11299363 56.56584763 -0.11340851 58.57910156 -0.11352539 C59.72493713 -0.115746 60.87077271 -0.11796661 62.05133057 -0.12025452 C64.58497946 -0.01692563 66.57939628 0.33400667 69 1 C71.87701389 1.15756466 74.74604377 1.2765548 77.625 1.375 C117.03066409 3.11289457 152.92360813 9.98897043 181.1796875 39.2578125 C192.83073476 52.68693123 199.16733491 70.62577791 205.4375 87 C206.17438346 88.89837935 206.91260017 90.79624167 207.65209961 92.69360352 C208.75346204 95.51946825 209.85424398 98.34553114 210.95088196 101.17323303 C213.90792526 108.79519451 216.95709934 116.37480498 220.0625 123.9375 C220.92847534 126.05204651 221.79436485 128.16662817 222.66015625 130.28125 C223.25594482 131.7353125 223.25594482 131.7353125 223.86376953 133.21875 C227.91084945 143.125139 231.85482259 153.07277086 235.76171875 163.03515625 C236.00318634 163.65083969 236.24465393 164.26652313 236.49343872 164.90086365 C237.68332387 167.93559689 238.87136233 170.97103246 240.05664062 174.00756836 C242.12277856 179.28706655 244.21456409 184.55023114 246.41015625 189.77734375 C249.31576399 196.70553194 252.06542406 203.69279801 254.81469727 210.68408203 C256.11901852 214.00089164 257.42596063 217.31666693 258.73266602 220.63253784 C259.42599829 222.39202622 260.11919309 224.15156878 260.81225586 225.91116333 C264.34307099 234.87471542 267.88556176 243.83363801 271.42907715 252.79217529 C272.50675609 255.51708274 273.5840173 258.24215495 274.66113281 260.96728516 C277.73157016 268.73543427 280.80247135 276.50338983 283.88021851 284.26864624 C291.03330841 302.31820385 298.11727056 320.3934694 305.125 338.5 C305.4852124 339.42916229 305.8454248 340.35832458 306.21655273 341.31564331 C309.88100982 350.77279216 313.46672255 360.23851204 316.83154297 369.80664062 C318.71154926 374.94464362 320.83744564 379.975512 323 385 C330.3828021 367.2578302 337.67711872 349.48008066 344.9375 331.6875 C345.33908325 330.70355255 345.7406665 329.7196051 346.15441895 328.70584106 C348.64997521 322.59032979 351.14276392 316.47369616 353.63345337 310.35620117 C354.5646139 308.06929637 355.496084 305.7825176 356.42782593 303.49584961 C363.13726189 287.02661905 369.80320603 270.54028077 376.43359375 254.0390625 C376.79909521 253.12950365 377.16459667 252.2199448 377.54117393 251.28282356 C380.93034688 242.84831054 384.31841457 234.41335402 387.7043457 225.97753906 C389.94591281 220.39327068 392.18895479 214.80959685 394.43359375 209.2265625 C394.79698601 208.32269932 395.16037827 207.41883614 395.53478241 206.48758316 C401.12999559 192.57787265 406.79312685 178.69732811 412.53160095 164.84609985 C415.22997937 158.32949391 417.89421181 151.80314103 420.45579529 145.2313385 C429.07040468 123.14818822 438.6308584 104.14450352 460.765625 93.34765625 C470.16055153 89.43310353 483.11365178 89.5099416 492.70703125 92.96484375 C512.52330254 101.9108606 520.93521597 117.67793743 529.16552734 136.75927734 C529.57859131 137.86843506 529.57859131 137.86843506 530 139 C530.42434326 140.07451416 530.84868652 141.14902832 531.28588867 142.25610352 C532.21429499 147.12349187 531.09596822 149.66927061 529.08984375 154.06640625 C528.76593155 154.8223558 528.44201935 155.57830536 528.10829163 156.35716248 C527.0709048 158.76798971 526.00559628 161.16514207 524.9375 163.5625 C523.56425156 166.70645688 522.20199871 169.85513035 520.83984375 173.00390625 C520.50634415 173.76911087 520.17284454 174.53431549 519.82923889 175.32270813 C517.3092424 181.14798713 515.09846259 187.02425881 513.04052734 193.03027344 C510.99811739 198.85943219 508.50096175 204.50532862 506.06445312 210.17822266 C502.35826949 218.81946368 498.75648147 227.37351294 495.91015625 236.34375 C494.67847455 239.93835754 493.07404723 243.30758297 491.46484375 246.74609375 C485.80056325 259.32834882 481.07237064 272.35759489 476.1340332 285.23632812 C472.4455595 294.85396953 468.73019263 304.4609681 465 314.0625 C464.70158203 314.83102295 464.40316406 315.5995459 464.09570312 316.39135742 C459.87497721 327.25560664 455.60422788 338.09734692 451.1953125 348.88696289 C448.88337931 354.59302159 446.8348894 360.33762212 444.953125 366.20019531 C443.61227101 370.1389539 441.97351829 373.93183206 440.34375 377.7578125 C438.8546437 381.35071433 437.47791129 384.97935862 436.125 388.625 C427.36962931 412.17717545 427.36962931 412.17717545 422.9453125 421.84375 C421.31808086 425.55545192 419.92314069 429.35666972 418.484375 433.14453125 C416.71078546 437.78476517 414.85216447 442.3907047 413 447 C410.34787584 453.60510476 407.74341867 460.22440555 405.20703125 466.875 C403.61419323 470.99885248 401.95700668 475.09620381 400.30249023 479.19555664 C398.43362239 483.85188839 396.67293846 488.54255343 394.9375 493.25 C393.26912271 497.77306035 391.50381468 502.20386747 389.4375 506.5625 C387.14041574 511.44380406 385.45731354 516.46369601 383.80444336 521.58740234 C382.43708919 525.7910889 380.88325282 529.79481539 379.015625 533.796875 C377.85406475 536.31656723 376.80216927 538.87020698 375.75 541.4375 C374.83537932 543.62585624 373.91843791 545.81324308 373 548 C372.70577148 548.70962891 372.41154297 549.41925781 372.10839844 550.15039062 C368.29743989 559.29203889 364.69172419 567.55733419 358 575 C356.88625 576.546875 356.88625 576.546875 355.75 578.125 C347.1425371 587.12371122 333.54740881 593.66688295 321 594 C319.42798828 594.07541016 319.42798828 594.07541016 317.82421875 594.15234375 C302.75283597 594.56413016 287.94720375 590.47212926 276.671875 579.89453125 C265.4069048 567.12931969 259.37240124 551.47250097 253.4375 535.75 C252.38763121 532.99864882 251.33281247 530.24920714 250.27734375 527.5 C250.00775848 526.79679626 249.73817322 526.09359253 249.4604187 525.36907959 C246.55121341 517.79815396 243.5279531 510.2740246 240.5 502.75 C233.53716463 485.43290603 226.72703134 468.0566574 219.92773438 450.67480469 C215.65981382 439.76619768 211.37268959 428.86706756 207 418 C206.10518667 415.7696444 205.21065579 413.53917546 204.31640625 411.30859375 C203.87200195 410.20016113 203.42759766 409.09172852 202.96972656 407.94970703 C198.17431465 395.98114427 193.41367614 383.99945274 188.68716431 372.00350952 C178.40474429 345.90687552 168.02942195 319.84769686 157.4375 293.875 C149.29301472 273.90216073 141.41732497 253.82257414 133.5459137 233.74085999 C121.296025 202.49224752 108.65639205 171.40311789 95.890625 140.36206055 C91.60547297 129.93842261 87.36254533 119.49840827 83.14169312 109.04858398 C60.64378199 47.25200008 60.64378199 47.25200008 12.33984375 5.8984375 C8.26031228 4.17272394 4.14521302 2.5607279 0 1 C0 0.67 0 0.34 0 0 Z " fill="#000000" transform="translate(841,720)"/>
<path d="M0 0 C1.44791511 0.00502748 2.89583192 0.00958817 4.34375 0.01367188 C7.85420259 0.02457295 11.36459007 0.04176798 14.875 0.0625 C10.13143087 12.5670753 5.39007158 25.06177864 0.13354492 37.36108398 C-3.27213451 45.34987106 -6.54336043 53.39214211 -9.8125 61.4375 C-10.08881256 62.11605042 -10.36512512 62.79460083 -10.64981079 63.49371338 C-15.57726433 75.5971894 -20.34714394 87.75446729 -24.796875 100.04296875 C-26.2095182 103.86495342 -27.79021123 107.56850352 -29.49609375 111.26953125 C-32.27334295 117.30648702 -34.74543337 123.44623172 -37.1875 129.625 C-37.60837891 130.68396484 -38.02925781 131.74292969 -38.46289062 132.83398438 C-39.29729386 134.93357577 -40.13064146 137.03358703 -40.96289062 139.1340332 C-41.98153129 141.70096489 -43.00663473 144.26514171 -44.03515625 146.828125 C-47.17298125 154.6644404 -50.24921459 162.52531881 -53.33789062 170.38110352 C-54.17020409 172.49770393 -55.00295143 174.61413295 -55.8359375 176.73046875 C-56.10863968 177.42359161 -56.38134186 178.11671448 -56.66230774 178.83084106 C-58.02595813 182.29189217 -59.39784576 185.74933643 -60.78588867 189.20068359 C-61.05378204 189.86707352 -61.32167542 190.53346344 -61.59768677 191.220047 C-62.32867388 193.03540734 -63.06183979 194.84988993 -63.79516602 196.66430664 C-65.57755129 201.21892765 -67.18130317 205.82172253 -68.75390625 210.453125 C-69.88493127 213.4305242 -71.11440643 216.26861126 -72.44921875 219.15625 C-75.34462517 225.44647366 -77.87065521 231.8584586 -80.375 238.3125 C-81.09852296 240.1665046 -81.82204745 242.0205086 -82.54573059 243.87445068 C-83.27349587 245.74013564 -83.99978903 247.60639462 -84.72607422 249.47265625 C-86.02135406 252.7965297 -87.32327189 256.11768261 -88.62890625 259.4375 C-91.92028475 267.81076143 -95.19263058 276.18616143 -98.3125 284.625 C-100.60132741 290.81072292 -103.12867065 296.85786149 -105.7578125 302.90625 C-108.75743355 309.83108944 -111.43114621 316.86687231 -114.0625 323.9375 C-116.58995891 330.7179701 -119.28937312 337.40426008 -122.125 344.0625 C-127.48626222 356.58578003 -127.48626222 356.58578003 -132.5 369.25 C-134.8667627 375.52392689 -137.46504326 381.6934815 -140.0625 387.875 C-143.3612045 395.73546165 -146.49831823 403.6102651 -149.43359375 411.61328125 C-151.690986 417.65162637 -154.17789826 423.5992652 -156.625 429.5625 C-160.15988761 438.18004342 -163.59318848 446.81248266 -166.81640625 455.55078125 C-168.83927927 460.97932706 -171.01228137 466.345282 -173.18115234 471.71679688 C-174.31008042 474.52247224 -175.43064245 477.33142911 -176.55078125 480.140625 C-176.98487305 481.22867432 -177.41896484 482.31672363 -177.86621094 483.43774414 C-178.72283707 485.58516593 -179.57898639 487.732778 -180.43457031 489.88061523 C-182.38839109 494.77256212 -184.36593562 499.6506517 -186.4140625 504.50390625 C-188.71317359 509.99570464 -190.88882571 515.5313728 -193.05078125 521.078125 C-193.77278113 522.92578333 -194.49478643 524.77343955 -195.21679688 526.62109375 C-196.32588616 529.46034278 -197.43279611 532.30034558 -198.53295898 535.14306641 C-211.345441 568.21734809 -211.345441 568.21734809 -220.125 578.0625 C-220.64449219 578.66191406 -221.16398437 579.26132813 -221.69921875 579.87890625 C-231.07871108 590.00176161 -244.53253982 595.67219802 -258.2265625 596.30078125 C-273.82049652 596.68208463 -288.63330212 592.87975136 -300.390625 581.90625 C-314.67862048 566.71720976 -320.83243702 546.56630914 -328.2421875 527.46875 C-331.13241629 520.02153472 -334.08920685 512.60182129 -337.0625 505.1875 C-337.49151611 504.11709473 -337.92053223 503.04668945 -338.36254883 501.94384766 C-339.05567774 500.2147169 -339.74881899 498.48559108 -340.44219971 496.75656128 C-343.20221286 489.8730694 -345.95663676 482.98734166 -348.7109375 476.1015625 C-348.9677404 475.45955776 -349.2245433 474.81755302 -349.48912811 474.1560936 C-352.93391361 465.54382947 -356.37671161 456.93077293 -359.81799316 448.31710815 C-362.4821493 441.64863385 -365.14711355 434.98048263 -367.8125 428.3125 C-368.09081539 427.61620987 -368.36913078 426.91991974 -368.65587997 426.20252991 C-376.70744744 406.06016635 -384.78597573 385.92930877 -392.96166992 365.83691406 C-396.05827426 358.220208 -399.11103896 350.59503826 -402.02148438 342.90478516 C-403.58936379 338.86645504 -405.29259104 334.88989532 -407.01171875 330.9140625 C-407.37910156 329.97304687 -407.74648437 329.03203125 -408.125 328.0625 C-408.56755127 327.09908691 -409.01010254 326.13567383 -409.46606445 325.14306641 C-411.04809571 319.40727539 -407.96696607 314.14846286 -405.78125 308.921875 C-405.305737 307.73901917 -404.830224 306.55616333 -404.34030151 305.33746338 C-403.05728528 302.14644027 -401.74957622 298.96609255 -400.43706512 295.78710938 C-399.07761053 292.48147328 -397.7421806 289.16616979 -396.40478516 285.8515625 C-394.28818846 280.61310276 -392.15990982 275.37957695 -390.02050781 270.15039062 C-386.74912638 262.15120355 -383.52310955 254.13441539 -380.31784058 246.10855103 C-379.50447717 244.07370085 -378.68816139 242.04005516 -377.87133789 240.0065918 C-373.26904236 228.52971972 -368.84390322 216.98639938 -364.47216797 205.41992188 C-361.50112859 197.57129951 -358.41401101 189.78464419 -355.125 182.0625 C-351.65306883 183.79846559 -350.85399161 187.96681182 -349.421875 191.41796875 C-348.88146576 192.69780388 -348.88146576 192.69780388 -348.33013916 194.00349426 C-347.17215186 196.7497378 -346.0234079 199.49973869 -344.875 202.25 C-344.1165056 204.0542973 -343.35739783 205.85833688 -342.59765625 207.66210938 C-341.1202335 211.17110865 -339.64601495 214.68142813 -338.17382812 218.19262695 C-335.9210336 223.55797658 -333.62975679 228.90622831 -331.32519531 234.24951172 C-329.51555161 238.49091017 -327.81607301 242.77275611 -326.125 247.0625 C-322.03722593 257.38604739 -317.8167264 267.64541498 -313.5 277.875 C-312.65354935 279.88227638 -311.80752965 281.88973062 -310.96255493 283.89762878 C-310.20175167 285.70535289 -309.43955142 287.51248887 -308.67724609 289.31958008 C-307.12369973 293.03645436 -305.63363973 296.77796226 -304.14187622 300.51997375 C-302.5688797 304.45298434 -300.96459212 308.37302216 -299.359375 312.29296875 C-298.83303719 313.57965454 -298.83303719 313.57965454 -298.29606628 314.89233398 C-297.15619898 317.67842272 -296.01569465 320.4642499 -294.875 323.25 C-294.484263 324.20427887 -294.093526 325.15855774 -293.69094849 326.14175415 C-292.06633561 330.1093085 -290.44170091 334.07685386 -288.81666565 338.04423523 C-286.3961852 343.95448143 -283.97950022 349.86625876 -281.56655884 355.77958679 C-280.08547942 359.40838287 -278.60243668 363.03637452 -277.11901855 366.66421509 C-276.41558425 368.38584108 -275.71302645 370.10782546 -275.01135254 371.83016968 C-274.03981308 374.21454889 -273.06520514 376.59765093 -272.08984375 378.98046875 C-271.80215622 379.68872803 -271.51446869 380.3969873 -271.21806335 381.12670898 C-270.05919943 384.33184658 -270.05919943 384.33184658 -268.125 387.0625 C-267.92392136 386.54838562 -267.72284271 386.03427124 -267.51567078 385.50457764 C-248.2432311 336.23025044 -248.2432311 336.23025044 -239.125 313.0625 C-238.5738903 311.66194777 -238.02278369 310.26139432 -237.47167969 308.86083984 C-235.99963778 305.12009161 -234.52715226 301.37951824 -233.05435181 297.6390686 C-232.48655471 296.1970179 -231.91882355 294.75494124 -231.35116577 293.31283569 C-226.40459197 280.74752484 -226.40459197 280.74752484 -224.23046875 275.328125 C-222.32938832 270.58740038 -220.45316792 265.83700306 -218.578125 261.0859375 C-218.24784805 260.24919495 -217.91757111 259.41245239 -217.57728577 258.550354 C-216.87640745 256.77468113 -216.17553588 254.99900559 -215.47467041 253.22332764 C-205.86846777 228.88764983 -205.86846777 228.88764983 -201.1171875 217.0625 C-200.79672958 216.26487244 -200.47627167 215.46724487 -200.14610291 214.64544678 C-199.50222849 213.04304576 -198.85834323 211.4406491 -198.21444702 209.83825684 C-190.11116695 189.66710738 -182.23664872 169.40974988 -174.40234375 149.1328125 C-174.03594788 148.18461639 -173.669552 147.23642029 -173.29205322 146.25949097 C-172.93383484 145.3324234 -172.57561646 144.40535583 -172.20654297 143.45019531 C-171.85775085 142.54756958 -171.50895874 141.64494385 -171.14959717 140.71496582 C-170.47916461 138.97935742 -169.8091057 137.24360463 -169.13946533 135.50769043 C-163.47532703 120.82940067 -163.47532703 120.82940067 -160.5859375 113.984375 C-158.63785248 109.36304025 -156.81590411 104.70463588 -155.0390625 100.015625 C-154.77091736 99.30805054 -154.50277222 98.60047607 -154.22650146 97.87145996 C-153.1255187 94.96101173 -152.0269383 92.04967867 -150.93261719 89.13671875 C-147.92322256 81.1356935 -144.82904305 73.18896309 -141.421875 65.34765625 C-141.00199814 64.37599518 -141.00199814 64.37599518 -140.57363892 63.38470459 C-130.16219248 39.77592808 -110.92037474 23.61838362 -87.34985352 14.20117188 C-67.69216611 6.76699191 -46.87733574 3.72248123 -26.125 1.0625 C-24.91191162 0.90019897 -24.91191162 0.90019897 -23.67431641 0.73461914 C-15.80462983 -0.19958775 -7.9103969 -0.0481455 0 0 Z " fill="#010101" transform="translate(1740.125,717.9375)"/>
<path d="M0 0 C9.48396385 -0.10857198 18.90851718 0.18758012 28.375 0.75 C29.09698578 0.79223694 29.81897156 0.83447388 30.56283569 0.87799072 C48.25129984 1.93295154 65.84689737 3.79497122 83.45788574 5.72277832 C87.86972693 6.20389675 92.28258377 6.67554177 96.6953125 7.1484375 C105.46456454 8.08965236 114.23263731 9.04134665 123 10 C121.09236275 16.05019186 118.8766767 21.8478825 116.26953125 27.62890625 C115.91541672 28.42167465 115.56130219 29.21444305 115.19645691 30.03123474 C114.4496974 31.70022026 113.7008328 33.36826536 112.94995117 35.03540039 C111.82735183 37.52950338 110.71297741 40.0271555 109.59960938 42.52539062 C106.09730889 50.35297649 102.51676747 58.13302885 98.69921875 65.8125 C98.22824516 66.76383568 98.22824516 66.76383568 97.74775696 67.73439026 C88.8081725 85.48101178 76.28734176 98.2043779 58.875 107.625 C58.26213135 107.96080078 57.6492627 108.29660156 57.01782227 108.64257812 C42.8922866 115.9925646 27.95946688 120.45442654 12.4375 123.6875 C11.55078613 123.87665985 10.66407227 124.0658197 9.75048828 124.26071167 C-13.25812929 129.12652298 -37.42788175 132.55097431 -61 132 C-59.53681579 127.26263753 -57.61419729 122.84340703 -55.47265625 118.3828125 C-55.12822983 117.65786591 -54.78380341 116.93291931 -54.42893982 116.18600464 C-53.69218045 114.6358526 -52.95394398 113.08640188 -52.21435547 111.53759766 C-50.26177795 107.44786239 -48.32055412 103.35274526 -46.37890625 99.2578125 C-45.99469513 98.44805969 -45.61048401 97.63830688 -45.21463013 96.80401611 C-42.25578692 90.5602723 -39.35699774 84.29103014 -36.5 78 C-31.55321364 67.1197679 -26.43978439 56.32070344 -21.32168579 45.52038574 C-16.47277228 35.28478692 -11.67376532 25.0314572 -7.04272461 14.69482422 C-4.81441723 9.73016972 -2.46478505 4.85202629 0 0 Z " fill="#010101" transform="translate(482,1199)"/>
</svg>
